<?xml version="1.0" encoding="utf-8"?>
<!-- Generator: Adobe Illustrator 18.1.1, SVG Export Plug-In . SVG Version: 6.00 Build 0)  -->
<svg version="1.1" id="圖層_1" xmlns="http://www.w3.org/2000/svg" xmlns:xlink="http://www.w3.org/1999/xlink" x="0px" y="0px"
	 viewBox="0 0 800 800" enable-background="new 0 0 800 800" xml:space="preserve">
<g>
	<defs>
		<path id="SVGID_1_" d="M263.5,261.5c65.7,17.8,98.5,54.9,98.5,111.1c0,19.6-4.2,38.3-12.5,56.1c-11.9,25.3-30.4,45-55.5,59.2
			c-25.1,14.2-54,21.3-86.8,21.3c-19.8,0-38.3-2.8-55.5-8.4c-17.2-5.6-31.1-13.4-41.9-23.2c-8.4-7.7-14.9-16.8-19.6-27.4
			c-4.7-10.6-7.1-21.2-7.1-32c0-18.7,6.3-34.5,18.8-47.5c12.5-13,27.9-19.5,46.2-19.5l1.3,5.9c-10.2,8.4-17.4,16.9-21.7,25.6
			c-4.2,8.7-6.4,19.2-6.4,31.5c0,18.7,5.4,35.5,16.1,50.5c8.1,11.7,18.6,20.6,31.6,26.9c12.9,6.3,27,9.4,42.1,9.4
			c29.6,0,53.3-11.5,71.1-34.6c8.6-11,15.3-24.2,20.2-39.7c4.9-15.5,7.4-31,7.4-46.7c0-17.6-3-34.7-9.1-51.3
			c-6-16.6-14-29.7-23.9-39.4c-11.9-11.4-24.7-17.1-38.6-17.1c-4,0-7.7,0.7-11.2,2.1c-3.5,1.4-8.2,4.3-14.2,8.7
			c-11.2,8.1-21,12.2-29.3,12.2c-6.4,0-11.7-1.9-16-5.6c-4.3-3.7-6.4-8.5-6.4-14.2c0-6.6,2.7-12,8.1-16.3c5.4-4.3,12.2-6.4,20.6-6.4
			c4.2,0,7.9,0.4,11.2,1.3l12.5,3.3c4.2,1.1,8.4,1.6,12.8,1.6c15.1,0,29.6-6.8,43.4-20.4c19.1-18.9,28.6-44.1,28.6-75.5
			c0-15.2-2.4-29.8-7.2-44c-4.8-14.2-11.6-26.4-20.4-36.8c-15.1-18-33.7-27-55.8-27c-18.4,0-33.5,5.7-45.3,17.1
			C157.9,83.6,152,98.4,152,116.4c0,13.4,3.2,24.8,9.6,34.3c6.4,9.5,15.1,15.6,26,18.5l1,5.9c-8.1,3.1-15.9,4.6-23.4,4.6
			c-15.8,0-28.6-4.7-38.4-14.2c-9.8-9.4-14.7-21.8-14.7-36.9c0-22.4,10.5-41.6,31.5-57.5c21-15.9,46.3-23.9,76-23.9
			c17.8,0,35,2.8,51.6,8.4c16.6,5.6,30.7,13.5,42.4,23.6c11.2,9.7,19.8,21.2,25.9,34.5c6,13.3,9.1,27.4,9.1,42.4
			c0,31.7-12.1,57.7-36.4,78.2C300.7,243.8,284.5,252.9,263.5,261.5z"/>
	</defs>
	<clipPath id="SVGID_2_">
		<use xlink:href="#SVGID_1_"  overflow="visible"/>
	</clipPath>
	<use xlink:href="#SVGID_1_"  overflow="visible" fill="none" stroke="#D4A853" stroke-miterlimit="10"/>
</g>
<g>
	<defs>
		<path id="SVGID_3_" d="M383.9,394.1c15.3-15.3,36.5-22.7,63.6-22.1c13.3,0.1,28.5,2.4,45.7,6.8c17.2,4.4,33.7,9.9,49.4,16.6
			c35.5,15.7,64.8,35.1,87.8,58.1c23,23,42.4,52.4,58.3,88.1c6.8,15.9,12.4,32.3,16.6,49.4c4.2,17.1,6.4,32.2,6.5,45.5
			c0.6,27.4-6.7,48.7-21.9,63.8c-15,15-36.3,22.3-63.8,21.9c-13.1-0.3-28.2-2.5-45.4-6.6c-17.1-4.1-33.5-9.7-49.3-16.7
			c-36-15.9-65.4-35.2-88.3-58.1c-23-23-42.3-52.4-57.9-88.1c-6.8-15.6-12.4-32-16.7-49.3c-4.3-17.3-6.6-32.5-6.9-45.6
			C361.4,430.4,368.8,409.2,383.9,394.1z M389.2,399.3c-5.8,5.8-9.3,13.7-10.5,23.8c-1.2,10,0,21.2,3.5,33.4
			c2.6,9.3,7.3,20.7,14.1,34.2c6.8,13.5,14,26.2,21.8,38.3c18.2,27.5,38.7,52.6,61.4,75.4c22.7,22.7,47.8,43.2,75.4,61.4
			c12.4,8,25.3,15.4,38.7,22.1c13.4,6.7,24.7,11.3,33.8,13.8c12.7,3.7,23.9,4.8,33.8,3.5c9.9-1.3,17.9-5,24-11.1
			c5.4-5.4,8.7-13.1,9.9-23.2c1.2-10.1,0.1-21.3-3.4-33.5c-2.6-9-7.3-20.3-13.9-33.7c-6.6-13.5-14-26.3-22.2-38.5
			c-18.2-27.8-38.6-53-61.2-75.6c-22.6-22.6-47.8-43-75.6-61.2c-11.9-7.9-24.7-15.2-38.2-21.9c-13.5-6.7-24.9-11.4-34.1-14.2
			c-12.2-3.5-23.4-4.7-33.4-3.5C403.1,389.8,395.1,393.3,389.2,399.3z"/>
	</defs>
	<clipPath id="SVGID_4_">
		<use xlink:href="#SVGID_3_"  overflow="visible"/>
	</clipPath>
	<use xlink:href="#SVGID_3_"  overflow="visible" fill="none" stroke="#D4A853" stroke-miterlimit="10"/>
</g>
<g>
	<path fill="none" stroke="#D4A853" stroke-width="1.1643" stroke-miterlimit="10" d="M383.9,394.1c15.3-15.3,36.5-22.7,63.6-22.1
		c13.3,0.1,28.5,2.4,45.7,6.8c17.2,4.4,33.7,9.9,49.4,16.6c35.5,15.7,64.8,35.1,87.8,58.1c23,23,42.4,52.4,58.3,88.1
		c6.8,15.9,12.4,32.3,16.6,49.4c4.2,17.1,6.4,32.2,6.5,45.5c0.6,27.4-6.7,48.7-21.9,63.8c-15,15-36.3,22.3-63.8,21.9
		c-13.1-0.3-28.2-2.5-45.4-6.6c-17.1-4.1-33.5-9.7-49.3-16.7c-36-15.9-65.4-35.2-88.3-58.1c-23-23-42.3-52.4-57.9-88.1
		c-6.8-15.6-12.4-32-16.7-49.3c-4.3-17.3-6.6-32.5-6.9-45.6C361.4,430.4,368.8,409.2,383.9,394.1z M389.2,399.3
		c-5.8,5.8-9.3,13.7-10.5,23.8c-1.2,10,0,21.2,3.5,33.4c2.6,9.3,7.3,20.7,14.1,34.2c6.8,13.5,14,26.2,21.8,38.3
		c18.2,27.5,38.7,52.6,61.4,75.4c22.7,22.7,47.8,43.2,75.4,61.4c12.4,8,25.3,15.4,38.7,22.1c13.4,6.7,24.7,11.3,33.8,13.8
		c12.7,3.7,23.9,4.8,33.8,3.5c9.9-1.3,17.9-5,24-11.1c5.4-5.4,8.7-13.1,9.9-23.2c1.2-10.1,0.1-21.3-3.4-33.5
		c-2.6-9-7.3-20.3-13.9-33.7c-6.6-13.5-14-26.3-22.2-38.5c-18.2-27.8-38.6-53-61.2-75.6c-22.6-22.6-47.8-43-75.6-61.2
		c-11.9-7.9-24.7-15.2-38.2-21.9c-13.5-6.7-24.9-11.4-34.1-14.2c-12.2-3.5-23.4-4.7-33.4-3.5C403.1,389.8,395.1,393.3,389.2,399.3z"
		/>
</g>
<g>
	<path fill="none" stroke="#D4A853" stroke-width="1.2427" stroke-miterlimit="10" d="M263.5,261.5c65.7,17.8,98.5,54.9,98.5,111.1
		c0,19.6-4.2,38.3-12.5,56.1c-11.9,25.3-30.4,45-55.5,59.2c-25.1,14.2-54,21.3-86.8,21.3c-19.8,0-38.3-2.8-55.5-8.4
		c-17.2-5.6-31.1-13.4-41.9-23.2c-8.4-7.7-14.9-16.8-19.6-27.4c-4.7-10.6-7.1-21.2-7.1-32c0-18.7,6.3-34.5,18.8-47.5
		c12.5-13,27.9-19.5,46.2-19.5l1.3,5.9c-10.2,8.4-17.4,16.9-21.7,25.6c-4.2,8.7-6.4,19.2-6.4,31.5c0,18.7,5.4,35.5,16.1,50.5
		c8.1,11.7,18.6,20.6,31.6,26.9c12.9,6.3,27,9.4,42.1,9.4c29.6,0,53.3-11.5,71.1-34.6c8.6-11,15.3-24.2,20.2-39.7
		c4.9-15.5,7.4-31,7.4-46.7c0-17.6-3-34.7-9.1-51.3c-6-16.6-14-29.7-23.9-39.4c-11.9-11.4-24.7-17.1-38.6-17.1
		c-4,0-7.7,0.7-11.2,2.1c-3.5,1.4-8.2,4.3-14.2,8.7c-11.2,8.1-21,12.2-29.3,12.2c-6.4,0-11.7-1.9-16-5.6c-4.3-3.7-6.4-8.5-6.4-14.2
		c0-6.6,2.7-12,8.1-16.3c5.4-4.3,12.2-6.4,20.6-6.4c4.2,0,7.9,0.4,11.2,1.3l12.5,3.3c4.2,1.1,8.4,1.6,12.8,1.6
		c15.1,0,29.6-6.8,43.4-20.4c19.1-18.9,28.6-44.1,28.6-75.5c0-15.2-2.4-29.8-7.2-44c-4.8-14.2-11.6-26.4-20.4-36.8
		c-15.1-18-33.7-27-55.8-27c-18.4,0-33.5,5.7-45.3,17.1C157.9,83.6,152,98.4,152,116.4c0,13.4,3.2,24.8,9.6,34.3
		c6.4,9.5,15.1,15.6,26,18.5l1,5.9c-8.1,3.1-15.9,4.6-23.4,4.6c-15.8,0-28.6-4.7-38.4-14.2c-9.8-9.4-14.7-21.8-14.7-36.9
		c0-22.4,10.5-41.6,31.5-57.5c21-15.9,46.3-23.9,76-23.9c17.8,0,35,2.8,51.6,8.4c16.6,5.6,30.7,13.5,42.4,23.6
		c11.2,9.7,19.8,21.2,25.9,34.5c6,13.3,9.1,27.4,9.1,42.4c0,31.7-12.1,57.7-36.4,78.2C300.7,243.8,284.5,252.9,263.5,261.5z"/>
</g>
<g>
	<path fill="none" stroke="#D4A853" stroke-width="0.4333" stroke-miterlimit="10" d="M378.3,399.7c15.3-15.3,36.5-22.7,63.6-22.1
		c13.3,0.1,28.5,2.4,45.7,6.8c17.2,4.4,33.7,9.9,49.4,16.6c35.5,15.7,64.8,35.1,87.8,58.1c23,23,42.4,52.4,58.3,88.1
		c6.8,15.9,12.4,32.3,16.6,49.4c4.2,17.1,6.4,32.2,6.5,45.5c0.6,27.4-6.7,48.7-21.9,63.8c-15,15-36.3,22.3-63.8,21.9
		c-13.1-0.3-28.2-2.5-45.4-6.6c-17.1-4.1-33.5-9.7-49.3-16.7c-36-15.9-65.4-35.2-88.3-58.1c-23-23-42.3-52.4-57.9-88.1
		c-6.8-15.6-12.4-32-16.7-49.3c-4.3-17.3-6.6-32.5-6.9-45.6C355.8,436.1,363.1,414.8,378.3,399.7z M383.5,404.9
		c-5.8,5.8-9.3,13.7-10.5,23.8c-1.2,10,0,21.2,3.5,33.4c2.6,9.3,7.3,20.7,14.1,34.2c6.8,13.5,14,26.2,21.8,38.3
		c18.2,27.5,38.7,52.6,61.4,75.4c22.7,22.7,47.8,43.2,75.4,61.4c12.4,8,25.3,15.4,38.7,22.1c13.4,6.7,24.7,11.3,33.8,13.8
		c12.7,3.7,23.9,4.8,33.8,3.5c9.9-1.3,17.9-5,24-11.1c5.4-5.4,8.7-13.1,9.9-23.2c1.2-10.1,0.1-21.3-3.4-33.5
		c-2.6-9-7.3-20.3-13.9-33.7c-6.6-13.5-14-26.3-22.2-38.5c-18.2-27.8-38.6-53-61.2-75.6c-22.6-22.6-47.8-43-75.6-61.2
		c-11.9-7.9-24.7-15.2-38.2-21.9c-13.5-6.7-24.9-11.4-34.1-14.2c-12.2-3.5-23.4-4.7-33.4-3.5C397.5,395.4,389.5,399,383.5,404.9z"/>
</g>
<g>
	<path fill="none" stroke="#D4A853" stroke-width="0.4333" stroke-miterlimit="10" d="M257.9,267.1c65.7,17.8,98.5,54.9,98.5,111.1
		c0,19.6-4.2,38.3-12.5,56.1c-11.9,25.3-30.4,45-55.5,59.2c-25.1,14.2-54,21.3-86.8,21.3c-19.8,0-38.3-2.8-55.5-8.4
		c-17.2-5.6-31.1-13.4-41.9-23.2c-8.4-7.7-14.9-16.8-19.6-27.4c-4.7-10.6-7.1-21.2-7.1-32c0-18.7,6.3-34.5,18.8-47.5
		c12.5-13,27.9-19.5,46.2-19.5l1.3,5.9c-10.2,8.4-17.4,16.9-21.7,25.6c-4.2,8.7-6.4,19.2-6.4,31.5c0,18.7,5.4,35.5,16.1,50.5
		c8.1,11.7,18.6,20.6,31.6,26.9c12.9,6.3,27,9.4,42.1,9.4c29.6,0,53.3-11.5,71.1-34.6c8.6-11,15.3-24.2,20.2-39.7
		c4.9-15.5,7.4-31,7.4-46.7c0-17.6-3-34.7-9.1-51.3c-6-16.6-14-29.7-23.9-39.4c-11.9-11.4-24.7-17.1-38.6-17.1
		c-4,0-7.7,0.7-11.2,2.1c-3.5,1.4-8.2,4.3-14.2,8.7c-11.2,8.1-21,12.2-29.3,12.2c-6.4,0-11.7-1.9-16-5.6c-4.3-3.7-6.4-8.5-6.4-14.2
		c0-6.6,2.7-12,8.1-16.3c5.4-4.3,12.2-6.4,20.6-6.4c4.2,0,7.9,0.4,11.2,1.3l12.5,3.3c4.2,1.1,8.4,1.6,12.8,1.6
		c15.1,0,29.6-6.8,43.4-20.4c19.1-18.9,28.6-44.1,28.6-75.5c0-15.2-2.4-29.8-7.2-44c-4.8-14.2-11.6-26.4-20.4-36.8
		c-15.1-18-33.7-27-55.8-27c-18.4,0-33.5,5.7-45.3,17.1c-11.8,11.4-17.7,26.2-17.7,44.2c0,13.4,3.2,24.8,9.6,34.3
		c6.4,9.5,15.1,15.6,26,18.5l1,5.9c-8.1,3.1-15.9,4.6-23.4,4.6c-15.8,0-28.6-4.7-38.4-14.2c-9.8-9.4-14.7-21.8-14.7-36.9
		c0-22.4,10.5-41.6,31.5-57.5c21-15.9,46.3-23.9,76-23.9c17.8,0,35,2.8,51.6,8.4c16.6,5.6,30.7,13.5,42.4,23.6
		c11.2,9.7,19.8,21.2,25.9,34.5c6,13.3,9.1,27.4,9.1,42.4c0,31.7-12.1,57.7-36.4,78.2C295,249.4,278.8,258.6,257.9,267.1z"/>
</g>
</svg>
